# xmcd
#
# Track frame offsets: 
#        150
#        15827
#        28769
#        44746
#        60216
#        75138
#        90353
#        107105
#        120105
#        135783
#        151070
#        167635
#        183597
#        196614
#
# Disc length: 2825 seconds
#
# Revision: 3
# Processed by: cddbd v1.5.2PL0 Copyright (c) Steve Scherf et al.
# Submitted via: ExactAudioCopy v0.95a5
#
DISCID=8b0b070e
DTITLE=Various Artist - HOT HITS COUNTRY VOL 54
DYEAR=1900
DGENRE=Country
TTITLE0=Brooks and Dunn - My Maria
TTITLE1=George Strait - Out Of The Blue Clear Sky
TTITLE2=Martina McBride - Phones Are Ringin All Over Town
TTITLE3=Vince Gill - High Lonesome Sound
TTITLE4=Alan Jackson - Home
TTITLE5=Billy Dean - It's What I Do
TTITLE6=Sammy Kershaw - Meant To Be
TTITLE7=Jeff Carson - Holdin Onto Something
TTITLE8=Kenny Chesney - Back In Your Arms Again
TTITLE9=Rhett Akins - Don't Get Me Started
TTITLE10=Linda Davis - Love Story In The Making
TTITLE11=Trace Adkins - There's A Girl In Texas
TTITLE12=Lorrie Morgan and Jon Randall - By My Side
TTITLE13=Dwight Yoakam - Sorry You Asked
EXTD=
EXTT0=
EXTT1=
EXTT2=
EXTT3=
EXTT4=
EXTT5=
EXTT6=
EXTT7=
EXTT8=
EXTT9=
EXTT10=
EXTT11=
EXTT12=
EXTT13=
PLAYORDER=
